<?xml version="1.0" encoding="iso-8859-1"?>
<!DOCTYPE svg PUBLIC "-//W3C//DTD SVG 20010904//EN" "http://www.w3.org/TR/2001/REC-SVG-20010904/DTD/svg10.dtd">
<svg version="1.0" xmlns="http://www.w3.org/2000/svg" xmlns:xlink="http://www.w3.org/1999/xlink" x="0px" y="0px" width="1152px" height="1152px" xml:space="preserve">
<g id="Layer 1">
</g>
<g id="Monkey.jpg_(Break)">
<g id="Layer 77">
</g>
<g id="Vadar.png">
<g id="">
<path style="fill:rgb(0,0,0);" d="M 412.831 88.1113 C 407.624 89.3707 407.624 89.3707 415.548 93.235 C 422.271 96.5137 426.356 97.0993 442.505 97.0993 C 453.344 97.0993 465.249 98.1287 470.159 99.4906 C 480.773 102.434 514.801 115.175 522.963 119.261 C 535.497 125.536 549.077 137.236 562.287 153.143 C 574.538 167.895 576.657 169.691 582.517 170.29 C 587.529 170.802 588.85 170.401 588.151 168.579 C 586.295 163.742 569.106 140.058 565.656 137.583 C 542.292 120.824 506.735 102.61 479.708 93.5552 C 465.49 88.7919 460.588 88.0274 440.741 87.4792 C 428.254 87.1342 415.694 87.4187 412.831 88.1114 L 412.831 88.1113 "/>
</g>
<g id="">
<path style="fill:rgb(0,0,0);" d="M 387.666 97.043 C 387.666 100.274 406.756 113.098 418.961 118.065 C 432.243 123.47 463.477 146.326 472.439 157.2 C 479.012 165.173 496.453 200.573 498.659 210.417 C 499.591 214.574 500.887 231.659 501.54 248.383 C 502.727 278.791 502.727 278.791 498.708 279.842 C 496.433 280.436 486.87 278.697 476.674 275.834 C 466.765 273.052 453.814 269.949 447.893 268.939 C 441.973 267.929 435.371 266.715 433.223 266.241 C 427.238 264.921 428.327 270.051 434.736 273.365 C 441.833 277.035 504.116 303.628 505.615 303.628 C 506.251 303.628 506.438 299.023 506.031 293.395 C 505.195 281.837 504.123 282.617 524.278 280.135 L 533.329 279.021 L 533.823 262.254 L 534.318 245.487 L 539.525 255.463 C 542.388 260.949 545.404 265.44 546.227 265.442 C 547.049 265.444 555.02 262.713 563.94 259.372 C 581.067 252.957 590.164 252.078 609.814 254.941 C 615.064 255.706 619.569 256.156 619.825 255.94 C 620.711 255.194 610.287 230.98 605.741 223.223 C 598.272 210.477 564.189 168.257 551.407 155.917 C 541.198 146.061 536.103 142.848 515.227 133.103 C 485.247 119.106 475.6 116.19 459.284 116.19 C 447.887 116.19 443.468 115.055 418.764 105.777 C 389.792 94.8965 387.666 94.2993 387.666 97.0431 L 387.666 97.043 "/>
</g>
<g id="">
<path style="fill:rgb(0,0,0);" d="M 317.376 116.33 C 285.477 119.135 256.771 141.339 225.156 187.662 C 211.46 207.729 204.472 223.258 198.503 246.892 C 188.939 284.762 187.498 297.408 187.864 340.258 C 188.151 373.881 187.706 381.698 184.753 394.927 C 179.779 417.209 174.767 432.515 167.23 448.434 C 158.432 467.019 148.35 492.084 125.302 552.677 C 114.773 580.359 103.503 609.919 100.259 618.367 C 97.0147 626.816 94.3603 634.43 94.3603 635.289 C 94.3603 639.344 101.744 635.89 114.365 625.931 C 131.895 612.098 137.767 608.138 170.724 587.923 C 199.972 569.983 207.823 566.729 228.852 563.831 C 244.837 561.629 251.239 558.454 254.688 551.018 C 256.035 548.112 258.343 535.191 259.816 522.305 C 261.646 506.299 264.93 490.352 270.181 471.975 C 274.408 457.179 279.151 437.502 280.721 428.247 C 283.77 410.276 284.822 407.395 299.637 376.459 C 313.962 346.544 334.05 322.752 354.399 311.598 C 361.107 307.92 369.014 302.417 371.968 299.369 L 377.339 293.827 L 370.266 276.832 C 366.376 267.484 363.55 259.479 363.987 259.042 C 364.424 258.605 369.771 257.393 375.869 256.349 C 387.19 254.409 407.556 256.294 444.07 262.66 C 465.793 266.448 493.439 269.59 494.623 268.406 C 495.213 267.815 494.415 259.746 492.849 250.475 C 489.594 231.208 472.517 185.63 462.695 169.992 C 449.335 148.721 442.961 141.969 431.305 136.74 C 425.211 134.006 418.029 129.921 415.346 127.663 C 409.265 122.547 397.171 116.616 389.82 115.146 C 380.286 113.239 381.021 118.105 391.81 128.309 C 397.219 133.425 406.649 145.771 413.503 156.712 C 420.172 167.357 431.967 183.876 439.715 193.421 C 455.279 212.595 458.476 217.985 466.74 238.979 C 474.778 259.401 470.955 258.032 453.431 234.212 C 447.464 226.101 431.202 207.748 417.293 193.427 C 395.685 171.178 390.741 165.028 383.327 151.171 C 378.554 142.252 372.101 131.963 368.986 128.307 C 360.078 117.851 343.592 114.025 317.376 116.33 L 317.376 116.33 "/>
</g>
<g id="">
<path style="fill:rgb(0,0,0);" d="M 585.516 269.666 C 585.516 280.843 602.882 296.747 607.293 289.611 C 607.928 288.583 606.803 286.21 604.792 284.336 C 600.563 280.396 600.066 277.595 603.598 277.595 C 608.782 277.595 612.131 280.126 616.904 287.653 C 619.803 292.224 625.098 297.317 629.71 299.971 C 639.436 305.567 660.969 329.55 665.716 340.074 C 673.093 356.43 695.073 424.738 702.446 454.223 C 706.677 471.145 713.296 500.272 717.155 518.949 C 723.831 551.265 730.285 577.404 732.015 579.134 C 734.197 581.316 734.865 566.102 733.186 552.453 C 727.937 509.773 695.291 393.563 672.304 335.735 C 665.273 318.046 650.806 289.816 646.286 284.965 C 638.618 276.734 619.729 267.344 607.198 265.533 C 586.602 262.557 585.516 262.764 585.516 269.666 L 585.516 269.666 "/>
</g>
<g id="">
<path style="fill:rgb(0,0,0);" d="M 556.012 274.616 C 547.17 278.188 546.429 278.929 545.946 284.678 C 545.482 290.209 551.517 310.57 553.62 310.57 C 554.076 310.57 556.85 309.328 559.784 307.811 C 564.84 305.197 565.064 304.646 564.054 297.279 C 563.326 291.97 563.808 287.92 565.575 284.504 C 568.286 279.262 569.091 270.615 566.859 270.706 C 566.144 270.735 561.262 272.495 556.012 274.616 L 556.012 274.616 "/>
</g>
<g id="">
<path style="fill:rgb(0,0,0);" d="M 405.262 298.352 C 390.364 302.61 353.651 321.416 342.698 330.4 C 333.066 338.301 314.836 358.883 314.797 361.9 C 314.74 366.368 335.695 379.475 339.317 377.236 C 340.014 376.805 344.139 371.106 348.483 364.572 C 360.647 346.275 395.18 320.974 416.417 314.801 C 430.763 310.63 466.633 311.925 478.123 317.028 C 482.534 318.987 486.619 321.36 487.2 322.301 C 488.846 324.963 477.552 326.15 450.362 326.171 C 427.163 326.188 424.699 326.511 415.217 330.766 C 409.609 333.282 405.021 336.09 405.021 337.006 C 405.021 337.921 406.636 340.939 408.61 343.711 C 411.394 347.62 413.554 348.752 418.235 348.752 C 430.27 348.752 437.701 361.964 431.759 372.799 C 427.132 381.237 423.983 382.814 417.293 380.042 C 410.557 377.252 406.756 370.335 406.756 360.865 C 406.756 355.737 405.263 351.545 401.473 346.037 C 396.19 338.359 396.19 338.359 391.494 341.331 C 376.192 351.016 358.162 365.389 358.162 367.902 C 358.162 371.948 379.586 388.793 392.503 394.904 C 405.465 401.036 428.271 404.829 446.674 403.914 C 459.586 403.272 463.41 402.253 477.334 395.741 L 493.243 388.301 L 503.411 396.729 C 509.004 401.364 515.512 406.43 517.875 407.987 C 522.169 410.818 522.169 410.818 518.698 414.718 C 515.354 418.477 514.467 418.58 494.401 417.56 C 464.431 416.037 437.709 420.441 418.905 430.002 C 410.029 434.515 409.372 435.274 409.539 440.832 C 409.638 444.12 413.314 455.876 417.709 466.956 C 422.852 479.922 426.123 491.229 426.886 498.679 C 427.539 505.045 428.658 510.616 429.374 511.058 C 430.09 511.501 433.866 506.493 437.764 499.931 C 449.597 480.014 474.732 464.109 508.285 455.307 C 517.831 452.803 526.119 449.995 526.703 449.066 C 527.287 448.138 528.222 441.784 528.78 434.945 C 529.338 428.107 531.349 418.361 533.25 413.288 L 536.705 404.063 L 525.713 389.823 C 515.233 376.246 514.669 375.02 513.599 363.469 C 512.982 356.806 512.062 347.758 511.555 343.362 C 510.632 335.37 510.632 335.37 520.74 333.473 C 526.299 332.429 535.238 331.067 540.604 330.446 C 550.361 329.316 550.361 329.316 551.17 334.828 L 551.979 340.339 L 537.508 339.133 C 523.037 337.928 523.037 337.928 523.037 342.472 C 523.037 346.472 523.735 347.016 528.869 347.016 C 532.077 347.016 538.325 347.513 542.754 348.12 C 549.058 348.984 550.806 349.926 550.806 352.459 C 550.806 355.328 549.332 355.694 537.789 355.694 C 527.492 355.694 524.718 356.238 524.512 358.297 C 524.369 359.729 524.174 361.813 524.079 362.928 C 523.958 364.334 527.69 364.832 536.26 364.554 C 546.538 364.221 548.806 364.651 549.751 367.114 C 551.306 371.166 550.191 371.892 540.754 372.978 C 535.065 373.632 532.583 374.708 532.583 376.52 C 532.583 378.471 535.409 379.358 543.864 380.06 C 552.789 380.801 557.105 382.25 564.531 386.999 C 573.602 392.799 574.582 393.022 593.718 393.629 C 617.001 394.368 624.424 392.273 635.833 381.74 C 643.16 374.975 643.21 374.847 642.423 364.875 C 641.499 353.163 632.216 335.726 623.663 329.635 C 614.781 323.311 589.362 322.82 581.356 328.818 C 578.139 331.228 578.159 331.586 582.224 344.507 C 585.449 354.757 587.412 358.267 590.954 360.122 C 596.818 363.193 598.712 370.325 595.119 375.809 C 591.419 381.456 584.738 382.826 577.569 379.407 C 569.922 375.761 568.325 369.718 573.198 362.875 C 575.2 360.062 576.824 355.929 576.805 353.69 C 576.753 347.367 572.308 332.237 570.578 332.498 C 569.726 332.627 567.272 333.265 565.124 333.917 C 559.84 335.52 559.951 331.457 565.329 326.404 C 570.81 321.255 591.439 314.123 600.984 314.078 C 614.967 314.011 627.103 319.095 637.085 329.202 C 649.136 341.404 650.463 346.712 649.002 376.881 C 647.718 403.41 648.335 405.786 660.737 422.033 C 673.564 438.837 673.568 441.843 660.802 466.301 C 648.604 489.67 648.061 491.581 650.023 504.197 C 652.815 522.152 658.028 536.215 664.582 543.469 C 672.847 552.617 675.169 557.89 672.401 561.225 C 671.225 562.642 665.057 566.658 658.695 570.149 C 643.563 578.453 582.693 617.528 567.787 628.506 C 561.377 633.227 553.351 640.878 549.953 645.507 C 546.555 650.137 540.991 656.368 537.589 659.355 C 530.266 665.785 528.506 664.974 522.027 652.188 C 519.71 647.617 512.878 637.806 506.843 630.385 C 492.067 612.213 467.5 578.635 467.5 576.609 C 467.5 573.908 475.315 567.429 478.573 567.429 C 484.81 567.429 488.13 571.186 492.738 583.457 C 500.046 602.917 512.409 625.948 518.134 630.765 C 524.939 636.491 528.286 636.254 536.406 629.474 C 540.121 626.372 556.261 616.071 572.273 606.584 C 600.484 589.868 620.691 574.862 627.627 565.476 C 630.334 561.814 630.615 560.211 629.06 557.306 C 627.391 554.187 625.644 553.729 616.301 553.957 C 610.347 554.103 597.665 553.278 588.12 552.124 C 575.37 550.583 564.087 550.486 545.599 551.76 C 531.758 552.713 512.613 553.505 503.053 553.519 C 489.022 553.54 484.424 554.214 479.196 557.016 C 475.358 559.073 469.358 560.498 464.469 560.513 C 452.781 560.551 450.509 562.34 453.176 569.406 C 454.339 572.488 454.964 575.337 454.564 575.737 C 454.163 576.138 448.124 577.108 441.143 577.894 C 434.162 578.68 417.831 581.287 404.852 583.688 C 391.872 586.089 372.926 589.021 362.749 590.204 C 350.191 591.664 343.503 593.23 341.933 595.078 C 340.661 596.575 337.837 604.582 335.659 612.869 C 330.77 631.468 331.539 636.551 341.796 653.447 C 346.024 660.412 349.484 666.671 349.484 667.356 C 349.484 668.04 346.75 671.936 343.409 676.013 C 340.069 680.09 337.335 684.173 337.335 685.085 C 337.335 688.657 346.637 703.13 350.604 705.729 C 353.994 707.95 357.556 708.252 369.214 707.306 C 380.721 706.372 387.102 706.889 400.834 709.866 C 416.487 713.26 420.928 713.483 450.12 712.333 C 468.114 711.624 486.025 710.007 490.905 708.651 C 495.692 707.321 508.589 704.658 519.566 702.734 C 541.587 698.874 539.953 699.92 558.616 677.729 C 565.335 669.739 565.948 669.43 577.707 668.118 C 595.347 666.15 635.608 648.584 660.906 631.819 C 688.299 613.665 714.077 594.724 715.819 591.47 C 717.613 588.117 714.205 566.374 705.929 528.379 C 704.474 521.698 699.084 495.144 693.951 469.371 C 681.178 405.227 666.757 356.784 655.102 338.869 C 646.005 324.886 633.555 311.525 626.503 308.178 C 617.189 303.759 607.326 304.776 577.646 313.218 C 546.834 321.981 529.057 325.253 519.337 323.949 C 515.754 323.469 505.806 319.026 497.23 314.077 C 479.55 303.873 467.003 299.502 447.673 296.814 C 429.24 294.25 418.218 294.65 405.262 298.352 L 405.262 298.352 "/>
</g>
<g id="">
<path style="fill:rgb(0,0,0);" d="M 312.438 386.426 C 307.553 387.685 301.455 403.526 297.425 425.427 C 295.437 436.233 293.452 446.765 293.015 448.831 C 292.355 451.946 294.22 453.765 303.93 459.477 C 310.371 463.265 326.575 472.97 339.938 481.043 C 369.783 499.072 406.082 518.201 426.183 526.494 C 442.624 533.277 443.203 533.437 443.203 531.198 C 443.203 530.361 435.198 526.362 425.413 522.31 C 403.5 513.234 375.911 495.79 373.505 489.49 C 371.818 485.072 366.839 449.028 366.839 441.235 C 366.839 439.051 367.425 437.265 368.141 437.266 C 368.857 437.267 374.128 441.55 379.856 446.784 C 385.583 452.018 390.789 456.312 391.425 456.327 C 394.218 456.394 404.216 471.549 409.529 483.769 C 416.391 499.554 419.826 502.176 418.526 490.636 C 418.027 486.212 413.487 474.196 408.084 463 C 400.575 447.442 396.677 441.533 389.916 435.455 C 381.245 427.662 318.969 385.025 316.804 385.399 C 316.164 385.51 314.2 385.972 312.438 386.426 L 312.438 386.426 "/>
</g>
<g id="">
<path style="fill:rgb(0,0,0);" d="M 563.353 408.163 C 554.573 410 555.095 412.213 564.692 413.835 C 574.736 415.531 578.554 421.173 578.654 434.461 C 578.734 445.074 578.734 445.074 596.041 460.52 C 618.292 480.378 632.435 491.331 634.822 490.555 C 638.683 489.299 653.799 451.775 656.125 437.674 C 657.355 430.211 655.289 428.07 641.399 422.418 C 632.013 418.599 625.76 417.454 608.946 416.477 C 591.783 415.48 586.594 414.506 579.442 410.939 C 572.032 407.244 569.682 406.838 563.353 408.163 L 563.353 408.163 "/>
</g>
<g id="">
<path style="fill:rgb(0,0,0);" d="M 505.173 487.278 C 483.762 514.93 478.894 519.598 464.521 526.257 C 459.556 528.558 454.29 531.439 452.819 532.659 C 449.471 535.438 449.336 543.771 452.596 546.476 C 456.114 549.396 465.011 549.764 464.44 546.966 C 463.564 542.68 467.676 537.894 475.806 533.735 C 481.086 531.035 485.518 527.034 488.302 522.457 C 494.545 512.194 494.726 512.361 498.006 531.417 C 499.042 537.437 499.567 537.925 505.007 537.925 C 510.353 537.925 510.889 537.462 510.889 532.844 C 510.889 530.049 510.076 521.92 509.083 514.779 C 507.446 503.013 507.6 501.263 510.72 496.132 C 514.163 490.471 514.163 490.471 515.967 494.673 C 517.422 498.061 526.508 533.323 526.508 535.58 C 526.508 536.92 538.515 536.087 539.381 534.687 C 539.891 533.861 539.17 527.808 537.778 521.237 C 536.385 514.665 535.233 504.017 535.216 497.574 C 535.187 486.418 535.381 485.859 539.274 485.859 C 543.618 485.859 543.75 486.279 551.1 523.607 C 553.236 534.454 553.236 534.454 560.698 534.454 C 564.803 534.454 568.154 533.868 568.146 533.152 C 568.138 532.436 566.973 522.088 565.558 510.156 C 564.143 498.225 562.978 488.267 562.97 488.028 C 562.961 487.79 564.502 487.594 566.393 487.594 C 569.923 487.594 570.478 488.944 572.458 502.346 C 573.022 506.165 574.772 514.951 576.347 521.871 L 579.209 534.454 L 587.569 534.454 L 595.93 534.454 L 595.93 523.173 C 595.93 516.968 596.515 511.893 597.231 511.895 C 597.947 511.897 600.761 515.425 603.484 519.735 C 606.207 524.045 611.791 530.321 615.892 533.682 L 623.349 539.793 L 629.551 535.584 L 635.754 531.375 L 630.274 523.803 C 615.39 503.233 598.121 483.184 587.168 473.758 L 575.014 463.297 L 556.402 463.278 C 546.165 463.267 534.993 462.796 531.576 462.231 C 525.363 461.203 525.363 461.203 505.173 487.278 L 505.173 487.278 "/>
</g>
<g id="">
<path style="fill:rgb(0,0,0);" d="M 284.684 477.615 C 283.124 483.581 279.058 501.739 275.649 517.966 C 264.537 570.852 266.916 567.492 232.495 578.902 C 204.505 588.179 195.56 592.386 167.481 609.48 C 151.381 619.28 143.689 625.446 129.485 639.932 C 119.691 649.922 111.195 660.014 110.607 662.358 C 108.16 672.109 117.382 679.512 143.389 688.675 C 161.243 694.965 180.357 697.653 207.485 697.687 C 252.44 697.743 285.814 678.898 289.548 651.351 C 290.046 647.671 290.775 635.198 291.168 623.633 C 291.95 600.577 293.351 596.211 302.91 587.042 C 311.456 578.845 317.066 577.09 362.628 568.36 C 423.601 556.677 424.89 556.368 425.486 553.273 C 425.942 550.906 422.31 550.407 398.595 549.582 C 383.516 549.057 361.025 547.042 348.616 545.103 C 336.207 543.165 318.806 541.033 309.946 540.367 C 301.087 539.7 293.422 538.48 292.913 537.656 C 292.404 536.832 292.511 534.508 293.151 532.491 C 294.269 528.97 295.082 528.862 313.656 529.777 C 331.582 530.66 377.787 535.382 408.551 539.476 C 415.742 540.433 425.461 540.667 430.148 539.997 L 438.67 538.778 L 422.279 532.302 C 413.264 528.741 399.25 523.586 391.137 520.848 C 372.809 514.663 363.618 510.022 333.24 491.615 C 312.347 478.954 290.246 466.768 288.179 466.768 C 287.817 466.768 286.244 471.649 284.684 477.615 L 284.684 477.615 "/>
</g>
<g id="">
<path style="fill:rgb(0,0,0);" d="M 641.64 539.658 C 634.059 542.715 634.288 558.248 641.989 563.294 C 647.583 566.959 652.329 565.34 649.806 560.627 C 647.724 556.737 647.358 546.616 649.297 546.576 C 650.013 546.561 651.767 545.811 653.194 544.909 C 655.42 543.502 655.296 542.897 652.326 540.652 C 648.385 537.673 646.903 537.536 641.64 539.658 L 641.64 539.658 "/>
</g>
<g id="">
<path style="fill:rgb(0,0,0);" d="M 309.096 653.707 C 308.152 662.083 305.725 665.158 289.451 678.592 C 282.999 683.918 280.375 694.994 284.3 700.336 C 286.424 703.228 288.652 703.61 301.138 703.229 C 309.875 702.962 316.313 701.939 317.527 700.626 C 320.188 697.743 323.451 683.836 323.451 675.371 C 323.451 668.452 314.279 645.528 311.511 645.528 C 310.69 645.528 309.603 649.209 309.096 653.707 L 309.096 653.707 "/>
</g>
</g>
</g>

</svg>